<?xml version="1.0" encoding="UTF-8"?>
<svg id="Layer_2" xmlns="http://www.w3.org/2000/svg" viewBox="0 0 228.5 176.61">
  <defs>
    <style>
      .cls-1 {
        fill: #fff;
      }
    </style>
  </defs>
  <g id="Layer_1-2" data-name="Layer_1">
    <g>
      <path class="cls-1" d="M226.76,46.46c-.03-.09-.53.09-.56,0-.34-1-.22-2.17-.6-3.16s-.99-1.89-1.41-2.85-.85-1.94-1.31-2.89-1.19-1.76-1.68-2.7-1.37-1.64-1.89-2.56-.26-2.29-.81-3.19-1.12-1.8-1.7-2.68-1.41-1.6-2.01-2.47-1.33-1.64-1.96-2.49-1.13-1.79-1.78-2.62-1.32-1.65-1.99-2.46-1.78-1.25-2.47-2.05-1.3-1.66-2.01-2.44c-.71-.81-1.25-1.79-2.03-2.57s-1.4-1.71-2.22-2.42-1.96-1.05-2.84-1.68-1.92-1-2.86-1.54-1.82-1.17-2.81-1.58-1.96-.94-3.02-1.2-2.1-.84-3.19-.9-2.2.18-3.3.33-2.17.31-3.23.68c-.99.34-2.11.64-3.11,1.19-.94.55-1.89,1.11-2.82,1.68s-1.83,1.2-2.75,1.78-1.68,1.42-2.59,2.02-1.93,1.05-2.83,1.66-1.53,1.62-2.43,2.24-1.96,1.01-2.85,1.63-1.48,1.69-2.37,2.31-2.13.77-3.02,1.39-1.42,1.78-2.31,2.4-2.03.9-2.93,1.51-1.93,1.03-2.84,1.63-1.78,1.27-2.7,1.85c-1.03.65-1.93,1.28-2.78,1.24-.98-.04-1.8-.87-2.68-1.46-.78-.51-1.3-1.46-2.11-2.11-.75-.61-2.03-.52-2.89-1.03-.99-.52-1.76-1.47-2.8-1.83s-2.18-.45-3.27-.66-2.21.06-3.32-.04-2.16-.37-3.27-.38-2.2.03-3.3.09-2.2.11-3.3.21-2.2.2-3.3.31-2.24-.08-3.33.03-2.24-.06-3.33.02c-1.09.15-2.15.67-3.24.82s-2.14.61-3.23.77-2.23-.03-3.33.13-2.16.49-3.25.66-2.21.18-3.3.36-2.09.85-3.18,1.04-2.15.51-3.24.7-2.34-.53-3.43-.32-2.13.65-3.21.87-2.06.95-3.14,1.18-2.23.15-3.3.39-2.05.92-3.12,1.18-2.15.48-3.22.75-2.18.38-3.24.67-2.06.8-3.13,1.11-2.12.61-3.17.93-2.29.08-3.34.42-1.91,1.26-2.95,1.62-2.21.36-3.25.73-2.11.68-3.13,1.07-2.18.5-3.21.92-1.79,1.44-2.8,1.88-2.29.29-3.29.76-2.05.86-3.04,1.35-1.77,1.41-2.75,1.92c-.95.55-2.12.73-3.01,1.3s-1.6,1.54-2.46,2.16-1.45,1.66-2.28,2.32-1.65,1.38-2.43,2.09-2.02,1.02-2.76,1.78-1.36,1.71-2.04,2.52-1.38,1.68-2,2.54-1.36,1.71-1.91,2.62-.86,2-1.34,2.95-.98,1.92-1.38,2.91-.96,1.96-1.27,2.98-.15,2.18-.37,3.23-.97,2.03-1.09,3.09.2,2.18.17,3.26-.06,2.15.02,3.22.53,2.08.7,3.15.01,2.17.27,3.22.94,1.94,1.29,2.97.36,2.14.79,3.13.86,1.96,1.37,2.92.98,1.91,1.55,2.83.84,2.03,1.47,2.92,1.3,1.73,1.99,2.57,2.02,1.07,2.76,1.87,1.36,1.63,2.15,2.39,1.54,1.46,2.37,2.17,1.4,1.67,2.26,2.33,1.64,1.4,2.53,2.02,1.81,1.17,2.73,1.75,1.8,1.18,2.75,1.71c.94.54,2.2.5,3.15,1.02s1.89,1.04,2.85,1.53,1.75,1.34,2.72,1.81,2.05.72,3.04,1.16,1.9,1.07,2.9,1.48,1.92,1.06,2.93,1.44,2.2.3,3.22.65,2.06.64,3.1.96,1.96,1.01,3,1.31,2.06.72,3.11.98,2.18.2,3.24.43,2.09.61,3.16.8,2.18.13,3.25.29,2.18-.03,3.26.1,2.14.25,3.22.34,2.13.4,3.22.46,2.15.6,3.23.62,2.17-.57,3.25-.58,2.18.55,3.27.5,2.12-.07,3.2-.15c1.38.21,2.44.46,2.92,1.51s.31,2.39.35,3.56c.04,1.07,0,2.15.03,3.23s.08,2.15.11,3.22.07,2.15.09,3.22.27,2.15.28,3.22-.43,2.15-.42,3.23-.01,2.15-.01,3.22.2,2.15.19,3.23.6,2.15.58,3.23c.01,1.1-.53,2.3-.84,3.33-.35,1.17-1.24,1.72-2.21,2.19-1.22.72-2.95,1.24-4.53,1.23-1.08,0-2.17.1-3.25.1s-2.16-.23-3.25-.24-2.16-.17-3.25-.18-2.17.53-3.25.53-2.17.19-3.25.18-2.16-.19-3.25-.2-2.16-.52-3.24-.53-2.16-.2-3.24-.2-2.17.8-3.25.79-2.16-.11-3.24-.12-2.16-.25-3.24-.25c-1.12-.03-2.24.07-3.36.06s-2.24.17-3.35.18-2.25-.56-3.37-.53-2.21.85-3.33.89-2.26-.44-3.38-.37-2.19.71-3.31.79-2.26-.29-3.38-.19c-1.05.1-2.14-.19-3.21-.16s-2.13.33-3.2.35-2.13.31-3.19.37-2.16-.14-3.21.01-1.99.72-3.02,1.03c-1.53.64-2.76,1.6-2.27,2.47.32.72,1.83,1.2,3.13,1.45,1.09.21,2.31-.33,3.22-.41,1.1-.05,2.21.09,3.3.04s2.18-.32,3.28-.36,2.2.12,3.3.08,2.2.02,3.29-.01,2.19-.25,3.28-.28,2.19-.03,3.29-.07,2.2.28,3.3.25,2.19-.3,3.28-.33,2.19-.33,3.28-.35,2.21.66,3.3.63,2.19.11,3.29.09,2.18-.76,3.28-.78,2.19-.08,3.29-.1,2.2.22,3.29.21,2.2.36,3.29.35,2.19-.38,3.29-.39,2.2.37,3.29.36,2.19.09,3.29.09,2.19,0,3.29-.01,2.19-.76,3.29-.76,2.19.66,3.29.67,2.19-.41,3.29-.41,2.19-.23,3.29-.23,2.19.41,3.29.41,2.19-.18,3.29-.18,2.19.19,3.29.2,2.2-.42,3.29-.41,2.19-.05,3.29-.04,2.19.13,3.29.14,2.19.35,3.29.36,2.19.1,3.29.11,2.19.22,3.29.24,2.19.02,3.29.03,2.19-.09,3.29-.08,2.2-.6,3.3-.59,2.19.51,3.28.52,2.19.37,3.29.38,2.2-.71,3.3-.7,2.19.24,3.29.25,2.19.02,3.29.03,2.19.07,3.29.08,2.19.57,3.29.58,2.2-.5,3.29-.5,2.2-.44,3.29-.43,2.19.33,3.29.33,2.19.57,3.29.57,2.2-.52,3.29-.51,2.19.07,3.29.07,2.19.37,3.29.38,2.19.04,3.29.04,2.19-.23,3.29-.23,2.19.01,3.29,0,2.19.27,3.29.26,2.2-.86,3.3-.86c1.02.04,2.3.07,3.56-.14,1.42-.24,2.42-.53,2.94-1.32.69-1.16.16-1.7-1.07-2.23-1.06-.46-2.36-1.04-3.24-1.04-1.08-.01-2.17.14-3.25.13s-2.16-.34-3.24-.35-2.17.2-3.25.19-2.17.3-3.25.29-2.16-.3-3.24-.31-2.16-.24-3.24-.24-2.17.48-3.25.47-2.16.16-3.25.16-2.16-.31-3.24-.31-2.16-.2-3.25-.2-2.16-.14-3.25-.14-2.16.16-3.25.16-2.16-.02-3.25-.03-2.16-.1-3.25-.1-2.17.59-3.25.59-2.16-.75-3.24-.75-2.17.4-3.25.4-2.16.08-3.25.08-2.16-.3-3.24-.31-2.17.75-3.25.74-2.16-.86-3.24-.86-2.17.7-3.25.69-2.16-.6-3.24-.6c-.88,0-1.92.51-2.85.34-.98-.18-1.83-.84-2.48-1.41-.72-.62-1.04-1.47-1.27-2.39s.11-1.84.09-2.74c0-1.08-.11-2.16-.11-3.24s-.38-2.16-.38-3.25-.1-2.17-.1-3.25.46-2.17.46-3.25.02-2.17.02-3.25-.84-2.17-.84-3.25.91-2.16.9-3.24c.04-1.08-.34-2.17-.35-3.2,0-1.15.05-2.2.31-3.13.29-1.05.61-2.19,1.69-2.71,1.01-.29,2.34-.44,3.64-.35,1.12.08,2.27.69,3.47.91s2.26.88,3.39,1.1c1.24.24,2.47.44,3.53.54,1.1.16,2.2.28,3.3.46s2.23.2,3.33.39,2.3-.16,3.4.03,2.23.2,3.33.38,2.16.63,3.26.8,2.14.92,3.25,1.05,2.31-.63,3.42-.54,2.18,1.08,3.29,1.12,2.24-.59,3.36-.61c1.08-.03,2.14.1,3.18-.03s2.01-.75,3.03-.99,2.18-.03,3.18-.36,2.15-.39,3.12-.82,1.98-.87,2.91-1.37,1.45-1.72,2.34-2.3,2.07-.72,2.93-1.35,1.52-1.49,2.34-2.17,1.6-1.38,2.39-2.1,1.26-1.73,2.01-2.48,1.74-1.25,2.47-2.02,1.41-1.58,2.12-2.37,1.69-1.34,2.38-2.14,1.46-1.55,2.14-2.36,1.18-1.79,1.85-2.6,1.56-1.47,2.23-2.28.84-2.06,1.51-2.87c.69-.88,1.88-1.35,2.57-2.23s1.2-1.9,1.89-2.77,1.3-1.82,1.99-2.7,1.44-1.71,2.12-2.59,1.07-2,1.74-2.88,1.41-1.73,2.08-2.63,1.82-1.44,2.47-2.35,1.07-1.98,1.71-2.9,1.22-1.87,1.84-2.8,1.53-1.68,2.12-2.62,1.14-1.93,1.71-2.89c.56-.91.34-2.24.81-3.19s1.5-1.66,1.88-2.65.25-2.16.54-3.18.58-2.03.77-3.08.3-2.09.4-3.15,0-2.11,0-3.17.05-2.1-.04-3.16.19-2.16,0-3.21-1.01-1.94-1.29-2.97.31-2.32-.06-3.32ZM221.85,67.52c-.03.09.48.25.45.34-.33,1.02-1.19,1.81-1.61,2.79s-.68,2.01-1.17,2.96-1.02,1.86-1.57,2.77-.87,1.97-1.45,2.86-.84,2.02-1.45,2.89-1.98,1.21-2.61,2.07-1.25,1.73-1.87,2.59c-.69.94-1.15,2.04-1.85,2.97s-1.29,1.95-1.99,2.87-1.55,1.75-2.26,2.67-1.42,1.85-2.14,2.76-1,2.18-1.72,3.09-1.55,1.75-2.28,2.65-1.68,1.63-2.42,2.53c-.71.86-1.62,1.54-2.32,2.39s-1.08,1.99-1.79,2.83-1.24,1.87-1.96,2.7-1.59,1.57-2.33,2.38-1.65,1.51-2.41,2.3-1.84,1.29-2.63,2.05-1.47,1.67-2.3,2.38-1.75,1.35-2.63,2.01-1.88,1.14-2.8,1.74-1.85,1.14-2.83,1.66-1.92,1.02-2.94,1.44-1.94,1.04-3.01,1.36-2.15.36-3.25.56-2.1.8-3.23.88-2.19-.18-3.33-.2c-1.08-.02-2.23.43-3.36.31-1.07-.12-2.09-.87-3.21-1.08-1.07-.15-2.25.34-3.32.18s-2.08-.73-3.16-.9-2.11-.56-3.18-.73-2.16-.26-3.23-.44-2.21.04-3.28-.14-2.07-.8-3.14-.97-2.08-.74-3.15-.91c-.98-.16-2.1.52-3.08.36s-1.87-.91-2.85-1.07-2-.13-2.98-.29-2.04.11-3.02-.03c-1.14-.2-2.03-.45-2.87-.29-1.09.2-1.85.62-2.49,1.32s-1.03,1.5-1.27,2.57c-.19.88-.28,1.85-.24,2.94,0,1.14-.32,2.29-.32,3.43s-.27,2.28-.27,3.43.38,2.29.38,3.43.31,2.29.31,3.43-.35,2.29-.35,3.43.16,2.29.16,3.43-.16,2.29-.16,3.43.5,2.29.5,3.43.13,2.29.13,3.43c-.04,1.46-1.06,2.82-1.87,3.93-.51.79-1.14,1.34-2.23,1.58-.98.22-2.08.72-3.06.5-1.09-.25-1.96-1.08-2.46-1.87-.78-1.12-1.37-2.74-1.38-4.2.01-1.14.07-2.29.07-3.43s.18-2.28.19-3.43-.23-2.28-.24-3.43,0-2.28-.02-3.43.57-2.29.55-3.44-.64-2.27-.67-3.42.34-2.29.3-3.44.03-2.29-.01-3.43.25-2.3.2-3.45c-.06-1.09-.79-2.23-1.11-3.36s-.43-2.6-1.45-3.22c-.77-.5-1.96-.85-2.99-.88s-2.03.55-2.93.67c-1.09.17-2.23-.15-3.32-.04s-2.15.59-3.25.65-2.2.56-3.3.56-2.22,0-3.32-.05-2.16-.75-3.26-.85-2.2-.03-3.3-.17-2.18-.3-3.27-.49-2.14-.51-3.22-.73-2.21-.19-3.28-.45-2.13-.58-3.19-.87-2.06-.8-3.11-1.12-2.24-.24-3.28-.6-1.88-1.27-2.92-1.66-2.2-.41-3.22-.82-2.02-.89-3.03-1.33-2.16-.58-3.16-1.04c-.96-.44-1.76-1.24-2.71-1.72s-2.08-.6-3.02-1.11-1.68-1.36-2.59-1.9-1.81-1.11-2.7-1.68-1.75-1.21-2.61-1.82-1.48-1.55-2.32-2.2-1.65-1.3-2.45-1.99-2.16-.79-2.92-1.52-1.41-1.62-2.12-2.41-1.39-1.63-2.04-2.47-.96-1.93-1.55-2.81-1.01-1.85-1.52-2.78-1.01-1.84-1.45-2.81-.75-1.95-1.1-2.97c-.38-1.01-1.33-1.83-1.59-2.85s-.45-2.13-.59-3.17.19-2.17.16-3.22-.2-2.14-.11-3.19.47-2.08.67-3.13.71-1.99,1.02-3.01.2-2.17.61-3.15.8-1.98,1.29-2.93,1.36-1.67,1.93-2.57,1.28-1.67,1.92-2.52,1.05-1.86,1.76-2.66,1.55-1.44,2.31-2.18,1.38-1.63,2.2-2.31,1.47-1.61,2.33-2.22c.9-.62,1.84-1.23,2.79-1.82s2-.95,2.97-1.5,2.16-.63,3.15-1.14,1.69-1.53,2.7-2.01,2.24-.39,3.26-.84,2.03-.83,3.06-1.25,1.78-1.47,2.82-1.87,2.18-.46,3.23-.83,2.1-.66,3.16-1.01,2.09-.71,3.15-1.04,2.1-.67,3.17-.98,2.06-.84,3.13-1.14,2.25-.15,3.32-.43,2.14-.53,3.22-.8,2.1-.72,3.18-.97,2.02-1.09,3.1-1.33,2.26-.05,3.34-.28,2.27.08,3.36-.13,2.09-.87,3.17-1.07,2.16-.51,3.25-.7,2.22-.16,3.31-.34,2.22-.2,3.3-.37,2.11-.87,3.2-1.04,2.17-.52,3.26-.67,2.23-.13,3.32-.27,2.27.22,3.35.08,2.21-.09,3.29-.22c1.07-.05,2.1-.95,3.22-1.06s2.19-.13,3.3-.24,2.22.01,3.32-.08,2.2-.27,3.3-.29,2.24-.18,3.33-.09,2.12.82,3.18,1.06,2.39-.15,3.4.3,1.7,1.49,2.6,2.18c.96.81,2.17,1.58,2.88,2.63.81,1.18,1.18,2.54,2.13,3.1,1.05.63,2.26.89,3.36.52s2-1.27,2.91-1.85c.88-.6,1.6-1.42,2.48-2.02s1.92-.95,2.79-1.55,1.54-1.5,2.42-2.1,2.19-.56,3.07-1.16,1.61-1.4,2.49-2,1.4-1.7,2.28-2.3,1.86-1.05,2.73-1.65,1.62-1.39,2.49-1.99,1.87-1.03,2.74-1.63,1.81-1.12,2.68-1.72,1.64-1.34,2.51-1.94c.91-.69,1.83-1.28,2.69-1.83.97-.61,2.08-.85,2.99-1.3,1.03-.5,1.94-1.13,2.92-1.43,1.08-.33,2.15-.82,3.18-.9,1.1-.09,2.16.66,3.22.83s1.96.6,2.99,1.02c.96.4,2.23.25,3.19.85.87.55,1.8,1.16,2.68,1.88.8.65,1.46,1.56,2.28,2.35.75.72,1.23,1.75,2,2.58.72.8,1.72,1.39,2.46,2.25s1.13,1.91,1.84,2.79,1.3,1.76,2,2.64,1.34,1.73,2.01,2.63,1.92,1.34,2.56,2.25.71,2.19,1.32,3.12,1.55,1.63,2.12,2.58,1.34,1.79,1.88,2.76.71,2.14,1.21,3.12,1.15,1.91,1.6,2.92.71,2.11,1.1,3.14,1.17,1.96,1.5,3.01.7,2.15.95,3.21.36,2.23.53,3.31-.05,2.25.01,3.35-.01,2.21-.07,3.32-.37,2.16-.55,3.26-.59,2.08-.9,3.15Z"/>
      <path class="cls-1" d="M100.45,62.79c.61,1.1,1.55,1.62,2.44,1.93.99.35,2.07.4,3.1.02.96-.36,2.1-.82,2.82-1.62s1.43-1.89,1.63-2.92.04-2.36-.5-3.38c-.57-1.01-1.68-1.49-2.4-2.03-.89-.67-1.8-1.5-2.75-1.54-1.03-.05-2.18.49-3.04,1.03s-1.64,1.41-2.07,2.36c-.4.87-.3,1.97-.17,3.07.11.9.82,1.67,1.39,2.66.05.1-.5.34-.45.42Z"/>
      <path class="cls-1" d="M120.23,60.78c.99.93,2.4.81,3.45.82,1.17.01,2.31-.24,3.21-1.01s1.59-1.77,1.88-2.92c.27-1.08.24-2.32-.29-3.48-.36-.86-1.11-1.49-1.84-2.07s-1.54-1.11-2.43-1.3-2-.43-2.86-.11c-1.34.45-2.5,1.48-2.95,2.57s-.52,2.69-.22,3.93,1.43,2.21,2.3,3.05c.12.23-.32.44-.25.5Z"/>
      <path class="cls-1" d="M90.58,87.31c.09.04.2-.23.29-.19.96.42,1.76,1.3,2.76,1.61s2.23-.24,3.25-.02,2,.48,3.04.6,2.03.6,3.08.64,2.11.27,3.15.21,2.09-.27,3.13-.42,1.92-1.01,2.94-1.25,2.23.23,3.22-.1,1.73-1.31,2.69-1.73,2.27-.15,3.18-.66,1.47-1.62,2.33-2.22c.91-.57,1.9-1.14,2.65-2s1.42-1.77,1.91-2.75c.53-1.04.93-2.14,1.09-3.18.18-1.19-.11-2.3-.56-3.26s-1.13-1.79-2.34-2.25c-.87-.34-1.97-.8-3.3-.79-1.09-.04-2.18-.19-3.28-.21s-2.2-.04-3.29-.03-2.18.55-3.28.58-2.21-.46-3.3-.4-2.18.33-3.27.41-2.19.15-3.28.25-2.15.51-3.24.63-2.11.69-3.19.84c-.98.15-2.15-.59-3.14-.37s-2.02.51-2.96.86-1.78,1.07-2.63,1.63c-1.08.71-1.83,1.64-2.41,2.49-.7,1.03-1.23,2.12-1.29,3.22s.25,2.36.8,3.42c.51.97,1.65,1.48,2.6,2.25.84.69,1.53,1.76,2.67,2.2ZM93.88,76.93c.1-.02.03-.31.13-.33,1.06-.21,2.22.13,3.3-.03s2.03-1.17,3.11-1.29,2.18-.15,3.26-.25,2.2.22,3.28.15,2.18.12,3.26.07,2.16-.2,3.24-.23c.67.05,1.86-.7,3.21-.73,1.04-.03,2.18.74,3.23.8,1.27.07,2.61-.35,3.33.05.91.5.62,1.37-.41,2.76-.77.73-1.12,1.84-1.98,2.44s-1.88.96-2.82,1.45-1.91.86-2.9,1.22-1.99.63-3.01.89-2.01.65-3.05.79-2.1.11-3.15.15-2.09-.23-3.13-.28-2.06-.26-3.09-.4-2.04-.34-3.06-.58-2.17-.01-3.16-.35c-1.43-.47-2.14-1.47-2.79-2.16-.96-1.03-1.16-1.72-.02-2.69.68-.58,1.66-1.08,3.2-1.45Z"/>
      <path class="cls-1" d="M164.46,87.03c-.05.06-.04.07-.09.12-1.05,1.07-1.81,2.65-2.55,3.99-.5.95-.85,1.99-1.46,2.86s-1.62,1.43-2.33,2.23-1.45,1.52-2.24,2.23-1.48,1.53-2.34,2.16-1.42,1.74-2.34,2.29-2.08.69-3.04,1.16-2.14.4-3.13.79-1.84,1.16-2.86,1.47c-1.04.26-2.08.62-3.16.85s-2.16.22-3.25.43-2.16.22-3.25.39-2.07.86-3.16,1-2.14.46-3.24.58-2.19.03-3.29.11-2.21-.36-3.3-.31-2.18-.1-3.27-.08-2.17.84-3.27.83-2.19-.14-3.28-.18-2.17-.34-3.26-.41-2.19-.05-3.28-.17-2.2-.07-3.28-.22-2.07-.9-3.14-1.09-2.31.36-3.37.13-2.02-1.02-3.07-1.3-2.28-.04-3.31-.37-1.94-1.12-2.96-1.5-1.9-1.12-2.89-1.56-2.1-.65-3.07-1.15-2.07-.81-2.99-1.37-1.69-1.42-2.58-2.05c-.83-.59-1.88-.93-2.67-1.58s-1.05-1.91-1.8-2.6-1.63-1.24-2.33-1.98-1.83-1.13-2.48-1.92-1.12-1.74-1.71-2.59-1.34-1.6-1.86-2.48c-.7-1.16-1.15-2.51-1.7-3.76s-.96-2.57-1.44-3.84c-.26-.81-.99-1.89-1.74-2.81-.88-1.09-1.54-1.78-2.39-.86-.62.92-1.11,1.93-1.03,3.21.07,1.07.58,2.18.97,3.36.36,1.08,1.07,2.04,1.58,3.1s.46,2.46,1.01,3.42c.66,1.16,1.18,2.29,1.68,3.09.62.93,1.87,1.41,2.55,2.28s1.42,1.68,2.16,2.5,1.33,1.79,2.12,2.56,1.37,1.81,2.22,2.52,1.95,1.12,2.85,1.78,1.6,1.61,2.53,2.21,1.85,1.27,2.82,1.81,1.97,1.07,2.97,1.55,2.32.26,3.35.69,1.81,1.45,2.86,1.84,2.23.34,3.29.67,2.18.41,3.26.69,2.05.93,3.14,1.16,2.21.26,3.3.45,2.16.54,3.26.69,2.25-.14,3.35-.03,2.2.14,3.31.21,2.2.24,3.31.28,2.21.39,3.32.39,2.23.07,3.33.03,2.24.12,3.34.06c1.1-.04,2.21-.09,3.32-.15s2.21-.24,3.32-.32,2.15-.8,3.26-.91,2.26.24,3.36.09,2.26.02,3.35-.17,2.04-1.13,3.12-1.37,2.2-.3,3.27-.6,2.12-.63,3.17-1,2.1-.71,3.12-1.15,2.27-.42,3.26-.93,1.7-1.52,2.64-2.12,1.57-1.58,2.46-2.25,1.9-1.11,2.73-1.87c.76-.74,1.92-1.13,2.67-1.94s1.04-1.97,1.7-2.83,1.31-1.72,1.85-2.65,1.35-1.79,1.7-2.81.64-2.15.74-3.24c0-1.22-.66-2.08-1.22-2.41-.66-.39-1.72-.2-2.48.62Z"/>
    </g>
  </g>
</svg>